<?xml version="1.0" encoding="UTF-8" standalone="no"?>
<!-- Created with Inkscape (http://www.inkscape.org/) -->

<svg
   width="170.22893mm"
   height="161.24542mm"
   viewBox="0 0 170.22893 161.24542"
   version="1.1"
   id="svg1"
   xml:space="preserve"
   inkscape:version="1.3.2 (091e20e, 2023-11-25, custom)"
   sodipodi:docname="icon-draft.svg"
   inkscape:export-filename="icon-draft.png"
   inkscape:export-xdpi="96"
   inkscape:export-ydpi="96"
   xmlns:inkscape="http://www.inkscape.org/namespaces/inkscape"
   xmlns:sodipodi="http://sodipodi.sourceforge.net/DTD/sodipodi-0.dtd"
   xmlns="http://www.w3.org/2000/svg"
   xmlns:svg="http://www.w3.org/2000/svg"><sodipodi:namedview
     id="namedview1"
     pagecolor="#ffffff"
     bordercolor="#000000"
     borderopacity="0.25"
     inkscape:showpageshadow="2"
     inkscape:pageopacity="0.0"
     inkscape:pagecheckerboard="0"
     inkscape:deskcolor="#d1d1d1"
     inkscape:document-units="mm"
     inkscape:zoom="0.70822811"
     inkscape:cx="472.30545"
     inkscape:cy="370.64329"
     inkscape:window-width="1359"
     inkscape:window-height="851"
     inkscape:window-x="555"
     inkscape:window-y="69"
     inkscape:window-maximized="0"
     inkscape:current-layer="layer1" /><defs
     id="defs1" /><g
     inkscape:label="Layer 1"
     inkscape:groupmode="layer"
     id="layer1"
     transform="translate(-14.8195,-41.521417)"><g
       id="g3"><path
         fill-rule="evenodd"
         clip-rule="evenodd"
         d="M 16.142417,49.095675 H 183.72551 v 68.556715 c 0,46.27654 -37.51499,83.79154 -83.791542,83.79154 -46.27678,0 -83.791551,-37.515 -83.791551,-83.79154 z"
         fill="#000000"
         id="path1"
         style="fill:#f25022;fill-opacity:1;stroke:#000000;stroke-width:2.64583;stroke-dasharray:none;stroke-opacity:1"
         sodipodi:nodetypes="ccccsssc" /><polygon
         id="bookmark_fill-[#1226]"
         points="249,2519 259,2519 259,2539 254,2534 249,2539 "
         transform="matrix(3.1451939,0,0,3.1451939,-752.58351,-7879.8991)"
         style="fill:#7fba00;fill-opacity:1;fill-rule:evenodd;stroke:#000000;stroke-width:0.841231;stroke-dasharray:none;stroke-opacity:1" /><g
         style="fill:#ffff00;stroke:#000000;stroke-width:0.571162;stroke-dasharray:none;stroke-opacity:1"
         id="g2"
         transform="matrix(4.6323727,0,0,4.6323727,44.342442,71.339882)"><path
           d="m 11.245,4.174 c 0.2315,-0.66592 0.3472,-0.99887 0.5184,-1.09115 0.1481,-0.07987 0.3264,-0.07987 0.4746,0 0.1711,0.09228 0.2868,0.42523 0.5183,1.09115 l 1.5303,4.40239 c 0.0659,0.18953 0.0988,0.28429 0.1582,0.35486 0.0524,0.06234 0.1193,0.11093 0.1948,0.14153 0.0854,0.03465 0.1857,0.03669 0.3863,0.04078 l 4.6598,0.09496 c 0.7049,0.01436 1.0573,0.02155 1.198,0.1558 0.1217,0.11619 0.1768,0.28582 0.1466,0.45137 -0.0348,0.19131 -0.3157,0.40421 -0.8775,0.83021 l -3.7141,2.8157 c -0.1599,0.1213 -0.2398,0.1819 -0.2886,0.2601 -0.0431,0.0692 -0.0686,0.1478 -0.0744,0.229 -0.0065,0.092 0.0225,0.188 0.0806,0.3801 l 1.3497,4.4611 c 0.2041,0.6748 0.3062,1.0122 0.222,1.1874 -0.0729,0.1517 -0.2172,0.2565 -0.384,0.279 -0.1927,0.0259 -0.482,-0.1754 -1.0607,-0.5781 l -3.8257,-2.6621 c -0.1647,-0.1146 -0.247,-0.1719 -0.3365,-0.1942 -0.0791,-0.0196 -0.1618,-0.0196 -0.2408,0 -0.0895,0.0223 -0.1719,0.0796 -0.3366,0.1942 L 7.71805,19.6802 C 7.13937,20.0829 6.85003,20.2842 6.65733,20.2583 6.49056,20.2358 6.34626,20.131 6.27337,19.9793 6.18915,19.8041 6.29123,19.4667 6.49538,18.7919 L 7.84503,14.3308 C 7.90313,14.1387 7.93218,14.0427 7.92564,13.9507 7.91986,13.8695 7.89432,13.7909 7.85123,13.7217 7.80246,13.6435 7.72251,13.5829 7.56262,13.4616 L 3.84858,10.6459 C 3.28678,10.2199 3.00588,10.007 2.97101,9.81569 2.94082,9.65014 2.99594,9.48051 3.11767,9.36432 3.25831,9.23007 3.61074,9.22289 4.31559,9.20852 L 8.9754,9.11356 C 9.176,9.10947 9.27631,9.10743 9.36177,9.07278 9.43726,9.04218 9.50414,8.99359 9.55657,8.93125 9.61593,8.86068 9.64887,8.76592 9.71475,8.57639 Z"
           stroke="#000000"
           stroke-width="2"
           stroke-linecap="round"
           stroke-linejoin="round"
           id="path1-1"
           style="fill:#ffff00;stroke:#000000;stroke-width:0.571162;stroke-dasharray:none;stroke-opacity:1" /></g></g></g></svg>
